<svg xmlns:xlink="http://www.w3.org/1999/xlink" xmlns="http://www.w3.org/2000/svg" width="110.389481px" height="110.389481px" viewBox="0 0 110.389481 110.389481" version="1.1">
 <metadata>
  <rdf:RDF xmlns:dc="http://purl.org/dc/elements/1.1/" xmlns:cc="http://creativecommons.org/ns#" xmlns:rdf="http://www.w3.org/1999/02/22-rdf-syntax-ns#">
   <cc:Work>
    <dc:type rdf:resource="http://purl.org/dc/dcmitype/StillImage"/>
    <dc:date>2026-02-21T14:24:56.695276</dc:date>
    <dc:format>image/svg+xml</dc:format>
    <dc:creator>
     <cc:Agent>
      <dc:title>Matplotlib v3.10.8, https://matplotlib.org/</dc:title>
     </cc:Agent>
    </dc:creator>
   </cc:Work>
  </rdf:RDF>
 </metadata>
 <defs>
  <style type="text/css">*{stroke-linejoin: round; stroke-linecap: butt}</style>
 </defs>
 <defs>
  <clipPath id="pebec531986">
   <rect x="13.798685" y="13.246738" width="85.551847" height="84.9999"/>
  </clipPath>
 </defs>
<g id="patch_1">
   <path d="M 0 110.389481  L 110.389481 110.389481  L 110.389481 0  L 0 0  L 0 110.389481  z " style="fill: none"/>
  </g>
  <g id="axes_1">
   <g id="patch_2">
    <path d="M 13.798685 98.246638  L 99.350532 98.246638  L 99.350532 13.246738  L 13.798685 13.246738  L 13.798685 98.246638  z " style="fill: none"/>
   </g>
   <g id="matplotlib.axis_1">
    <g id="xtick_1">
     <g id="line2d_1">
      <defs>
       <path id="m503612288c" d="M 0 0  L 0 2  " style="stroke: #000000; stroke-width: 0.75"/>
      </defs>
      <g>
       <use xlink:href="#m503612288c" x="13.798685" y="98.246638" style="stroke: #000000; stroke-width: 0.75"/>
      </g>
     </g>
     <g id="text_1">
      <!--0--><text x="12.130404" y="107.541325" font-family="Arial" font-size="6px" font-weight="regular" fill="currentColor" text-anchor="start" dominant-baseline="alphabetic">0</text></g>
    </g>
    <g id="xtick_2">
     <g id="line2d_2">
      <g>
       <use xlink:href="#m503612288c" x="56.574609" y="98.246638" style="stroke: #000000; stroke-width: 0.75"/>
      </g>
     </g>
     <g id="text_2">
      <!--0.5--><text x="52.404609" y="107.541325" font-family="Arial" font-size="6px" font-weight="regular" fill="currentColor" text-anchor="start" dominant-baseline="alphabetic">0.5</text></g>
    </g>
    <g id="xtick_3">
     <g id="line2d_3">
      <g>
       <use xlink:href="#m503612288c" x="99.350532" y="98.246638" style="stroke: #000000; stroke-width: 0.75"/>
      </g>
     </g>
     <g id="text_3">
      <!--1--><text x="97.682251" y="107.541325" font-family="Arial" font-size="6px" font-weight="regular" fill="currentColor" text-anchor="start" dominant-baseline="alphabetic">1</text></g>
    </g>
    <g id="text_4">
     <!--False Positive Rate--><text x="26.424296" y="117.744294" font-family="Arial" font-size="7px" font-weight="regular" fill="currentColor" text-anchor="start" dominant-baseline="alphabetic">False Positive Rate</text></g>
   </g>
   <g id="matplotlib.axis_2">
    <g id="ytick_1">
     <g id="line2d_4">
      <defs>
       <path id="mdba27a19a3" d="M 0 0  L -2 0  " style="stroke: #000000; stroke-width: 0.75"/>
      </defs>
      <g>
       <use xlink:href="#mdba27a19a3" x="13.798685" y="98.246638" style="stroke: #000000; stroke-width: 0.75"/>
      </g>
     </g>
     <g id="text_5">
      <!--0--><text x="5.462123" y="100.393981" font-family="Arial" font-size="6px" font-weight="regular" fill="currentColor" text-anchor="start" dominant-baseline="alphabetic">0</text></g>
    </g>
    <g id="ytick_2">
     <g id="line2d_5">
      <g>
       <use xlink:href="#mdba27a19a3" x="13.798685" y="55.746688" style="stroke: #000000; stroke-width: 0.75"/>
      </g>
     </g>
     <g id="text_6">
      <!--0.5--><text x="0.458685" y="57.894031" font-family="Arial" font-size="6px" font-weight="regular" fill="currentColor" text-anchor="start" dominant-baseline="alphabetic">0.5</text></g>
    </g>
    <g id="ytick_3">
     <g id="line2d_6">
      <g>
       <use xlink:href="#mdba27a19a3" x="13.798685" y="13.246738" style="stroke: #000000; stroke-width: 0.75"/>
      </g>
     </g>
     <g id="text_7">
      <!--1--><text x="5.462123" y="15.394081" font-family="Arial" font-size="6px" font-weight="regular" fill="currentColor" text-anchor="start" dominant-baseline="alphabetic">1</text></g>
    </g>
    <g id="text_8">
     <!--True Positive Rate--><text x="-4.932565" y="84.403485" font-family="Arial" font-size="7px" font-weight="regular" fill="currentColor" text-anchor="start" dominant-baseline="alphabetic" transform="rotate(-90, -4.932565, 84.403485)">True Positive Rate</text></g>
   </g>
   <g id="line2d_7">
    <path d="M 13.798685 98.246638  L 13.901347 68.522173  L 13.927013 68.479673  L 13.927013 68.411673  L 14.029675 65.615176  L 14.046785 65.615176  L 14.046785 65.504676  L 14.149448 63.447679  L 14.166558 63.371179  L 14.166558 63.337179  L 14.26922 61.764681  L 14.294886 61.696681  L 14.294886 61.654181  L 14.397548 60.540682  L 14.423214 60.464182  L 14.423214 60.430182  L 14.525876 59.469683  L 14.551541 59.401683  L 14.551541 59.359183  L 14.654204 58.611184  L 14.705535 58.509184  L 14.705535 58.500684  L 14.808197 58.143685  L 14.816752 58.143685  L 14.816752 58.033185  L 14.919414 57.659185  L 14.953635 57.557186  L 14.953635 57.548686  L 15.056297 56.970686  L 15.081963 56.919686  L 15.081963 56.860186  L 15.17607 56.528687  L 15.184625 56.528687  L 15.210291 56.486187  L 15.210291 56.418187  L 15.304398 56.163187  L 15.312953 56.163187  L 15.330063 56.146187  L 15.330063 56.052687  L 15.40706 55.653188  L 15.432725 55.653188  L 15.501167 55.542688  L 15.603829 55.228188  L 15.63805 55.134688  L 15.63805 55.117688  L 15.740712 54.820189  L 15.783488 54.726689  L 15.783488 54.709689  L 15.88615 54.420689  L 15.920371 54.361189  L 15.920371 54.310189  L 16.005923 54.07219  L 16.023033 54.07219  L 16.082919 53.96169  L 16.185582 53.73219  L 16.236913 53.63019  L 16.236913 53.62169  L 16.339575 53.46019  L 16.416572 53.35819  L 16.416572 53.34969  L 16.519234 52.984191  L 16.621896 52.899191  L 16.621896 52.873691  L 16.724558 52.661191  L 16.869996 52.559191  L 16.869996 52.550691  L 16.972659 52.287192  L 17.015435 52.193692  L 17.015435 52.176692  L 17.118097 51.972692  L 17.195093 51.870692  L 17.195093 51.862192  L 17.297756 51.615693  L 17.357642 51.505193  L 17.460304 51.335193  L 17.537301 51.250193  L 17.537301 51.224693  L 17.631408 51.037693  L 17.639963 51.037693  L 17.708404 50.944193  L 17.708404 50.927193  L 17.811067 50.748694  L 17.853843 50.680694  L 17.853843 50.638194  L 17.956505 50.519194  L 18.050612 50.425694  L 18.050612 50.408694  L 18.153274 50.221694  L 18.255936 50.136694  L 18.255936 50.111194  L 18.350043 49.983694  L 18.358599 49.983694  L 18.40993 49.881695  L 18.40993 49.873195  L 18.504037 49.711695  L 18.512592 49.711695  L 18.589589 49.609695  L 18.589589 49.601195  L 18.692251 49.414195  L 18.803468 49.303695  L 18.90613 49.150695  L 19.068679 49.040196  L 19.162786 48.878696  L 19.171341 48.878696  L 19.274003 48.776696  L 19.274003 48.768196  L 19.351 48.717196  L 19.376666 48.717196  L 19.547769 48.615196  L 19.547769 48.606696  L 19.641876 48.496196  L 19.650431 48.496196  L 19.770204 48.394196  L 19.770204 48.385696  L 19.838645 48.300696  L 19.872866 48.300696  L 19.992639 48.198697  L 19.992639 48.190197  L 20.095301 48.122197  L 20.172298 48.020197  L 20.172298 48.011697  L 20.266405 47.833197  L 20.27496 47.833197  L 20.369067 47.722697  L 20.454619 47.595197  L 20.471729 47.595197  L 20.779716 47.484697  L 20.873823 47.391197  L 20.882378 47.391197  L 21.053482 47.280698  L 21.156144 47.170198  L 21.310137 47.076698  L 21.310137 47.059698  L 21.412799 46.983198  L 21.695121 46.872698  L 21.797783 46.753698  L 21.977442 46.660198  L 21.977442 46.643198  L 22.080104 46.558198  L 22.268318 46.473199  L 22.268318 46.447699  L 22.37098 46.371199  L 22.490753 46.277699  L 22.490753 46.260699  L 22.567749 46.184199  L 22.593415 46.184199  L 22.867181 46.073699  L 22.927067 46.056699  L 22.969843 46.056699  L 23.226499 45.954699  L 23.226499 45.946199  L 23.329161 45.801699  L 23.654258 45.699699  L 23.654258 45.691199  L 23.731255 45.5977  L 23.75692 45.5977  L 23.945134 45.5042  L 23.945134 45.4872  L 24.047796 45.3937  L 24.270231 45.2832  L 24.372893 45.2492  L 24.672325 45.1387  L 24.706546 45.1217  L 24.774987 45.1217  L 24.980312 45.0197  L 24.980312 45.0112  L 25.082974 44.8922  L 25.322519 44.798701  L 25.322519 44.781701  L 25.416626 44.722201  L 25.425181 44.722201  L 25.630506 44.611701  L 25.724613 44.518201  L 25.733168 44.518201  L 26.109596 44.407701  L 26.169482 44.339701  L 26.212258 44.339701  L 26.520245 44.229201  L 26.554466 44.186701  L 26.622907 44.186701  L 26.939449 44.084701  L 26.939449 44.076201  L 27.033556 44.008201  L 27.042111 44.008201  L 27.392874 43.897702  L 27.444205 43.829702  L 27.495536 43.829702  L 27.812078 43.736202  L 27.812078 43.719202  L 27.863409 43.676702  L 27.91474 43.676702  L 28.248392 43.566202  L 28.274058 43.549202  L 28.351054 43.549202  L 28.684707 43.447202  L 28.684707 43.438702  L 28.753148 43.387702  L 28.787369 43.387702  L 29.112466 43.277202  L 29.198018 43.192202  L 29.215128 43.192202  L 29.463228 43.081703  L 29.557335 43.039203  L 29.565891 43.039203  L 29.839656 42.928703  L 29.925208 42.886203  L 29.942319 42.886203  L 30.207529 42.784203  L 30.207529 42.775703  L 30.216085 42.758703  L 30.310192 42.758703  L 30.541182 42.648203  L 30.635289 42.605703  L 30.643844 42.605703  L 30.891944 42.495203  L 30.95183 42.444203  L 30.994606 42.444203  L 31.448031 42.333703  L 31.533583 42.282704  L 31.550693 42.282704  L 31.969897 42.172204  L 32.004118 42.146704  L 32.07256 42.146704  L 32.440433 42.036204  L 32.543095 41.985204  L 32.876747 41.874704  L 32.953744 41.823704  L 32.979409 41.823704  L 33.236065 41.721704  L 33.236065 41.713204  L 33.338727 41.636704  L 33.715155 41.526204  L 33.817817 41.458204  L 34.211356 41.347705  L 34.314018 41.296705  L 34.61345 41.186205  L 34.699001 41.126705  L 34.716112 41.126705  L 34.955657 41.016205  L 35.058319 40.939705  L 35.34064 40.829205  L 35.434747 40.812205  L 35.443302 40.812205  L 35.905282 40.701705  L 36.007945 40.667705  L 36.401483 40.557206  L 36.49559 40.506206  L 36.504145 40.506206  L 36.735135 40.395706  L 36.837798 40.361706  L 37.205671 40.251206  L 37.282667 40.217206  L 37.308333 40.217206  L 37.847309 40.106706  L 37.924306 40.047206  L 37.949972 40.047206  L 38.198072 39.936706  L 38.283624 39.911206  L 38.300734 39.911206  L 38.634386 39.817706  L 38.634386 39.800706  L 38.711383 39.766706  L 38.737049 39.766706  L 39.156253 39.656207  L 39.241804 39.622207  L 39.258915 39.622207  L 39.815002 39.511707  L 39.891999 39.435207  L 39.917664 39.435207  L 40.353978 39.333207  L 40.353978 39.324707  L 40.430975 39.273707  L 40.456641 39.273707  L 40.790293 39.163207  L 40.858734 39.103707  L 40.892955 39.103707  L 41.423377 38.993207  L 41.466153 38.967707  L 41.526039 38.967707  L 41.953798 38.857208  L 42.05646 38.831708  L 42.321671 38.721208  L 42.415778 38.670208  L 42.424333 38.670208  L 42.757985 38.576708  L 42.757985 38.559708  L 42.843537 38.534208  L 42.860648 38.534208  L 43.382514 38.423708  L 43.459511 38.389708  L 43.485176 38.389708  L 43.955711 38.279208  L 44.032708 38.245208  L 44.058373 38.245208  L 44.588795 38.134708  L 44.588795 38.126208  L 44.691457 38.126208  L 45.161992 38.015709  L 45.247544 37.964709  L 45.264655 37.964709  L 45.718079 37.854209  L 45.820742 37.820209  L 46.351163 37.709709  L 46.453825 37.624709  L 46.796033 37.514209  L 46.898695 37.454709  L 47.420561 37.344209  L 47.523223 37.310209  L 47.865431 37.199709  L 47.968093 37.16571  L 48.464294 37.05521  L 48.549845 37.02121  L 48.566956 37.02121  L 48.789391 36.91921  L 48.789391 36.91071  L 48.883498 36.84271  L 48.892053 36.84271  L 49.148708 36.75771  L 49.148708 36.73221  L 49.174374 36.70671  L 49.251371 36.70671  L 49.662019 36.60471  L 49.662019 36.59621  L 49.739016 36.57921  L 49.764682 36.57921  L 50.004227 36.46871  L 50.029892 36.44321  L 50.106889 36.44321  L 50.585979 36.34121  L 50.585979 36.332711  L 50.671531 36.307211  L 50.688642 36.307211  L 51.090735 36.196711  L 51.184842 36.154211  L 51.193398 36.154211  L 51.450053 36.052211  L 51.450053 36.043711  L 51.54416 35.992711  L 51.552715 35.992711  L 51.954809 35.882211  L 52.014695 35.856711  L 52.057471 35.856711  L 52.408234 35.746211  L 52.459565 35.729211  L 52.510896 35.729211  L 52.818883 35.627211  L 52.818883 35.618711  L 52.870214 35.584711  L 52.921545 35.584711  L 53.272307 35.491211  L 53.272307 35.474212  L 53.323639 35.448712  L 53.37497 35.448712  L 53.751398 35.338212  L 53.85406 35.295712  L 54.290374 35.185212  L 54.31604 35.168212  L 54.393037 35.168212  L 54.914903 35.057712  L 54.9919 35.015212  L 55.017565 35.015212  L 55.45388 34.904712  L 55.547987 34.853712  L 55.556542 34.853712  L 56.129739 34.743212  L 56.198181 34.700712  L 56.232401 34.700712  L 56.805599 34.590213  L 56.831264 34.564713  L 56.908261 34.564713  L 57.182027 34.454213  L 57.276134 34.420213  L 57.284689 34.420213  L 57.738114 34.309713  L 57.755224 34.267213  L 57.840776 34.267213  L 58.268535 34.156713  L 58.268535 34.148213  L 58.371198 34.148213  L 58.893064 34.037713  L 58.93584 34.003713  L 58.995726 34.003713  L 59.389265 33.893213  L 59.474816 33.833713  L 59.491927 33.833713  L 60.056569 33.723214  L 60.142121 33.655214  L 60.159231 33.655214  L 60.698208 33.544714  L 60.80087 33.502214  L 61.348402 33.400214  L 61.348402 33.391714  L 61.433954 33.357714  L 61.451064 33.357714  L 61.964375 33.247214  L 62.015706 33.213214  L 62.067037 33.213214  L 62.571793 33.102714  L 62.674455 33.068714  L 63.298984 32.958214  L 63.307539 32.924215  L 63.401646 32.924215  L 63.795185 32.813715  L 63.837961 32.779715  L 63.897847 32.779715  L 64.428268 32.669215  L 64.530931 32.635215  L 65.155459 32.524715  L 65.215345 32.482215  L 65.258121 32.482215  L 65.660215 32.371715  L 65.685881 32.346215  L 65.762877 32.346215  L 66.087974 32.235715  L 66.173526 32.218715  L 66.190636 32.218715  L 66.387406 32.108215  L 66.464402 32.065716  L 66.490068 32.065716  L 66.909272 31.955216  L 66.994824 31.938216  L 67.011934 31.938216  L 67.602242 31.836216  L 67.602242 31.827716  L 67.662128 31.810716  L 67.704904 31.810716  L 67.901673 31.700216  L 67.987225 31.666216  L 68.004336 31.666216  L 68.65453 31.555716  L 68.757192 31.504716  L 69.270503 31.394216  L 69.373165 31.368716  L 69.920697 31.258216  L 70.014804 31.190217  L 70.023359 31.190217  L 70.408342 31.079717  L 70.511005 31.028717  L 70.878878 30.918217  L 70.98154 30.884217  L 71.409299 30.773717  L 71.469185 30.714217  L 71.511961 30.714217  L 71.914055 30.603717  L 71.982496 30.544217  L 72.016717 30.544217  L 72.418811 30.442217  L 72.418811 30.433717  L 72.512918 30.408217  L 72.521473 30.408217  L 72.915012 30.297718  L 72.957788 30.272218  L 73.017674 30.272218  L 73.29144 30.161718  L 73.351326 30.144718  L 73.394102 30.144718  L 73.744865 30.034218  L 73.830416 29.983218  L 73.847527 29.983218  L 74.189734 29.881218  L 74.189734 29.872718  L 74.266731 29.838718  L 74.292396 29.838718  L 74.831373 29.728218  L 74.90837 29.685718  L 74.934035 29.685718  L 75.38746 29.592218  L 75.38746 29.575218  L 75.421681 29.549718  L 75.490122 29.549718  L 75.823774 29.439219  L 75.900771 29.396719  L 75.926437 29.396719  L 76.260089 29.286219  L 76.285754 29.260719  L 76.362751 29.260719  L 76.807621 29.150219  L 76.893173 29.124719  L 76.910283 29.124719  L 77.132718 29.039719  L 77.132718 29.014219  L 77.226825 28.954719  L 77.23538 28.954719  L 77.748691 28.844219  L 77.825688 28.784719  L 77.851353 28.784719  L 78.304778 28.67422  L 78.39033 28.64022  L 78.40744 28.64022  L 78.664096 28.52972  L 78.758203 28.48722  L 78.766758 28.48722  L 79.091855 28.37672  L 79.143186 28.35122  L 79.194517 28.35122  L 79.613721 28.24072  L 79.639387 28.20672  L 79.716383 28.20672  L 80.02437 28.09622  L 80.092812 28.06222  L 80.127032 28.06222  L 80.409353 27.95172  L 80.512016 27.88372  L 80.914109 27.781721  L 80.914109 27.773221  L 80.973996 27.730721  L 81.016772 27.730721  L 81.273427 27.620221  L 81.333313 27.594721  L 81.376089 27.594721  L 81.615634 27.484221  L 81.675521 27.441721  L 81.718297 27.441721  L 82.077614 27.339721  L 82.077614 27.331221  L 82.146056 27.271721  L 82.180277 27.271721  L 82.522484 27.161221  L 82.625146 27.118721  L 83.035795 27.008221  L 83.04435 26.991221  L 83.138457 26.991221  L 83.48922 26.880722  L 83.557661 26.855222  L 83.591882 26.855222  L 83.822872 26.744722  L 83.916979 26.676722  L 83.925534 26.676722  L 84.190745 26.566222  L 84.242076 26.549222  L 84.293407 26.549222  L 84.473066 26.481222  L 84.473066 26.438722  L 84.575728 26.404722  L 84.832384 26.294222  L 84.935046 26.260222  L 85.140371 26.149722  L 85.234478 26.090223  L 85.243033 26.090223  L 85.610906 25.988223  L 85.610906 25.979723  L 85.713568 25.945723  L 85.961668 25.835223  L 86.055775 25.784223  L 86.064331 25.784223  L 86.320986 25.682223  L 86.320986 25.673723  L 86.397983 25.622723  L 86.423648 25.622723  L 86.663193 25.512223  L 86.74019 25.393223  L 86.765856 25.393223  L 87.065287 25.282724  L 87.167949 25.231724  L 87.595709 25.121224  L 87.698371 25.078724  L 87.903695 24.976724  L 87.903695 24.968224  L 88.006357 24.883224  L 88.322899 24.772724  L 88.417006 24.696224  L 88.425562 24.696224  L 88.613776 24.585724  L 88.699327 24.534724  L 88.716438 24.534724  L 88.921762 24.424225  L 89.024424 24.364725  L 89.366632 24.254225  L 89.443629 24.194725  L 89.469294 24.194725  L 89.768726 24.084225  L 89.862833 24.033225  L 89.871388 24.033225  L 89.97405 23.922725  L 90.076712 23.863225  L 90.256371 23.752725  L 90.350478 23.701725  L 90.359033 23.701725  L 90.632799 23.591225  L 90.718351 23.540226  L 90.735461 23.540226  L 90.932231 23.429726  L 91.026338 23.370226  L 91.034893 23.370226  L 91.257328 23.268226  L 91.257328 23.259726  L 91.308659 23.225726  L 91.35999 23.225726  L 91.531094 23.115226  L 91.633756 23.004726  L 91.82197 22.911226  L 91.82197 22.894226  L 91.907522 22.809226  L 91.924632 22.809226  L 92.078625 22.698727  L 92.181288 22.630727  L 92.437943 22.520227  L 92.523495 22.486227  L 92.540605 22.486227  L 92.711709 22.375727  L 92.737375 22.341727  L 92.814371 22.341727  L 93.053916 22.231227  L 93.139468 22.129227  L 93.156579 22.129227  L 93.601448 22.018727  L 93.687 21.967727  L 93.704111 21.967727  L 93.935101 21.857228  L 94.020652 21.763728  L 94.037763 21.763728  L 94.200311 21.653228  L 94.302973 21.559728  L 94.448412 21.449228  L 94.542519 21.364228  L 94.551074 21.364228  L 94.756398 21.253728  L 94.816285 21.185728  L 94.85906 21.185728  L 95.05583 21.075228  L 95.158492 20.947729  L 95.338151 20.837229  L 95.423703 20.794729  L 95.440813 20.794729  L 95.560586 20.692729  L 95.560586 20.684229  L 95.594806 20.633229  L 95.663248 20.633229  L 95.817241 20.531229  L 95.817241 20.522729  L 95.919903 20.369729  L 96.01401 20.293229  L 96.01401 20.259229  L 96.116673 20.208229  L 96.219335 20.10623  L 96.219335 20.09773  L 96.321997 19.95323  L 96.45888 19.85123  L 96.45888 19.84273  L 96.561542 19.75773  L 96.766867 19.64723  L 96.869529 19.47723  L 97.023522 19.37523  L 97.023522 19.36673  L 97.109074 19.222231  L 97.126184 19.222231  L 97.340064 19.111731  L 97.442726 18.975731  L 97.502613 18.865231  L 97.605275 18.746231  L 97.733603 18.652731  L 97.733603 18.635731  L 97.836265 18.312732  L 97.930372 18.210732  L 97.930372 18.202232  L 98.033034 18.100232  L 98.110031 17.998232  L 98.110031 17.989732  L 98.212693 17.785732  L 98.281134 17.692232  L 98.281134 17.675232  L 98.383797 17.369233  L 98.469348 17.258733  L 98.5549 17.088733  L 98.572011 17.088733  L 98.674673 17.003733  L 98.674673 16.978233  L 98.777335 16.638234  L 98.820111 16.536234  L 98.820111 16.527734  L 98.905663 16.179234  L 98.922773 16.179234  L 98.956994 16.077234  L 98.956994 16.068734  L 99.059656 15.558735  L 99.093877 15.507735  L 99.093877 15.448235  L 99.187984 14.997736  L 99.196539 14.997736  L 99.239315 14.912736  L 99.239315 14.887236  L 99.341977 13.272238  L 99.350532 13.272238  L 99.350532 13.246738  " clip-path="url(#pebec531986)" style="fill: none; stroke: #df6347; stroke-linecap: square"/>
   </g>
   <g id="line2d_8">
    <path d="M 13.798685 98.246638  L 13.901347 53.018191  L 13.909902 53.018191  L 13.909902 52.907691  L 14.012565 49.677695  L 14.029675 49.635195  L 14.029675 49.567195  L 14.132337 46.677198  L 14.140892 46.677198  L 14.140892 46.566698  L 14.243555 45.4872  L 14.260665 45.4617  L 14.260665 45.3767  L 14.363327 43.923202  L 14.371882 43.923202  L 14.371882 43.812702  L 14.474545 42.979703  L 14.508765 42.903203  L 14.508765 42.869203  L 14.611428 42.214704  L 14.628538 42.129704  L 14.628538 42.104204  L 14.7312 41.653704  L 14.782531 41.585704  L 14.782531 41.543204  L 14.885194 41.033205  L 14.919414 40.939705  L 14.919414 40.922705  L 15.022076 40.667705  L 15.047742 40.667705  L 15.047742 40.557206  L 15.150404 40.098206  L 15.253066 39.987706  L 15.338618 39.817706  L 15.355729 39.817706  L 15.40706 39.724207  L 15.40706 39.707207  L 15.509722 39.418207  L 15.586719 39.341707  L 15.586719 39.307707  L 15.689381 38.899707  L 15.766378 38.797708  L 15.766378 38.789208  L 15.86904 38.551208  L 15.911816 38.440708  L 16.005923 38.160208  L 16.014478 38.160208  L 16.10003 38.049708  L 16.194137 37.769209  L 16.202692 37.769209  L 16.245468 37.675709  L 16.245468 37.658709  L 16.34813 37.446209  L 16.433682 37.335709  L 16.536344 37.09771  L 16.604786 37.03821  L 16.604786 36.98721  L 16.707448 36.86821  L 16.758779 36.76621  L 16.758779 36.75771  L 16.861441 36.65571  L 16.955548 36.54521  L 17.049655 36.39221  L 17.05821 36.39221  L 17.092431 36.307211  L 17.092431 36.281711  L 17.135207 36.222211  L 17.195093 36.222211  L 17.280645 36.111711  L 17.374752 35.984211  L 17.383307 35.984211  L 17.468859 35.873711  L 17.571522 35.712211  L 17.657073 35.618711  L 17.657073 35.601711  L 17.682739 35.576211  L 17.759736 35.576211  L 17.930839 35.465712  L 18.033502 35.287212  L 18.170384 35.176712  L 18.273047 35.091712  L 18.392819 34.989712  L 18.392819 34.981212  L 18.495481 34.836712  L 18.700806 34.726212  L 18.803468 34.598713  L 18.974572 34.488213  L 19.077234 34.428713  L 19.197007 34.326713  L 19.197007 34.318213  L 19.282558 34.284213  L 19.299669 34.284213  L 19.547769 34.190713  L 19.547769 34.173713  L 19.624766 34.122713  L 19.650431 34.122713  L 19.847201 34.020713  L 19.847201 34.012213  L 19.941308 33.944213  L 19.949863 33.944213  L 20.035415 33.850713  L 20.035415 33.833713  L 20.138077 33.723214  L 20.317736 33.612714  L 20.394732 33.502214  L 20.420398 33.502214  L 20.71983 33.391714  L 20.813937 33.281214  L 20.822492 33.281214  L 21.139034 33.170714  L 21.241696 33.111214  L 21.506907 33.000714  L 21.601014 32.958214  L 21.609569 32.958214  L 21.780672 32.856215  L 21.780672 32.847715  L 21.883335 32.771215  L 22.165656 32.660715  L 22.259763 32.609715  L 22.268318 32.609715  L 22.396646 32.516215  L 22.396646 32.499215  L 22.482198 32.380215  L 22.499308 32.380215  L 22.83296 32.286715  L 22.83296 32.269715  L 22.935622 32.218715  L 23.166612 32.108215  L 23.269275 32.014716  L 23.568706 31.904216  L 23.645703 31.853216  L 23.671368 31.853216  L 23.868138 31.759716  L 23.868138 31.742716  L 23.962245 31.700216  L 23.9708 31.700216  L 24.133348 31.589716  L 24.176124 31.547216  L 24.23601 31.547216  L 24.424225 31.436716  L 24.484111 31.368716  L 24.526887 31.368716  L 25.082974 31.258216  L 25.185636 31.207217  L 25.630506 31.096717  L 25.733168 31.045717  L 25.912827 30.943717  L 25.912827 30.935217  L 25.938492 30.892717  L 26.015489 30.892717  L 26.2807 30.782217  L 26.383362 30.714217  L 27.230325 30.603717  L 27.324432 30.552717  L 27.332987 30.552717  L 27.743636 30.450717  L 27.743636 30.442217  L 27.837743 30.425217  L 27.846298 30.425217  L 28.214171 30.314718  L 28.308278 30.263718  L 28.316834 30.263718  L 28.761703 30.153218  L 28.787369 30.127718  L 28.864365 30.127718  L 29.06969 30.025718  L 29.06969 30.017218  L 29.112466 29.983218  L 29.172352 29.983218  L 29.694218 29.872718  L 29.788325 29.830218  L 29.796881 29.830218  L 30.164753 29.719718  L 30.267416 29.685718  L 30.660954 29.575218  L 30.729396 29.524219  L 30.763616 29.524219  L 31.234152 29.413719  L 31.276927 29.388219  L 31.336814 29.388219  L 31.969897 29.277719  L 32.012673 29.235219  L 32.07256 29.235219  L 32.423322 29.124719  L 32.525984 29.099219  L 32.962299 28.988719  L 33.03074 28.946219  L 33.064961 28.946219  L 33.407168 28.844219  L 33.407168 28.835719  L 33.467055 28.793219  L 33.509831 28.793219  L 34.031697 28.699719  L 34.031697 28.68272  L 34.134359 28.64872  L 34.536453 28.53822  L 34.63056 28.51272  L 34.639115 28.51272  L 35.049764 28.40222  L 35.126761 28.36822  L 35.152426 28.36822  L 35.545965 28.25772  L 35.614406 28.21522  L 35.648627 28.21522  L 35.956614 28.11322  L 35.956614 28.10472  L 36.059276 28.07922  L 36.367262 27.96872  L 36.435704 27.94322  L 36.469925 27.94322  L 36.837798 27.832721  L 36.923349 27.798721  L 36.94046 27.798721  L 37.607764 27.688221  L 37.684761 27.662721  L 37.710426 27.662721  L 38.583055 27.552221  L 38.685717 27.501221  L 39.139142 27.390721  L 39.233249 27.339721  L 39.241804 27.339721  L 39.695229 27.237721  L 39.695229 27.229221  L 39.772226 27.195221  L 39.797891 27.195221  L 40.379644 27.084721  L 40.482306 27.025221  L 40.8844 26.914722  L 40.918621 26.889222  L 40.987062 26.889222  L 41.868246 26.778722  L 41.936688 26.744722  L 41.970908 26.744722  L 42.612547 26.634222  L 42.680989 26.600222  L 42.715209 26.600222  L 43.399624 26.489722  L 43.476621 26.472722  L 43.502286 26.472722  L 43.989932 26.362222  L 44.049818 26.345222  L 44.092594 26.345222  L 44.81123 26.234722  L 44.81123 26.226222  L 44.913892 26.226222  L 45.410093 26.115723  L 45.452869 26.090223  L 45.512755 26.090223  L 45.96618 25.979723  L 46.034621 25.954223  L 46.068842 25.954223  L 46.684815 25.852223  L 46.684815 25.843723  L 46.753257 25.809723  L 46.787477 25.809723  L 47.343564 25.699223  L 47.394896 25.682223  L 47.446227 25.682223  L 48.122086 25.571723  L 48.199083 25.520723  L 48.224748 25.520723  L 48.857832 25.418723  L 48.857832 25.410223  L 48.857832 25.401723  L 48.960494 25.401723  L 49.739016 25.291223  L 49.841678 25.274224  L 50.337879 25.172224  L 50.337879 25.163724  L 50.414876 25.146724  L 50.440541 25.146724  L 51.184842 25.036224  L 51.270394 25.019224  L 51.287505 25.019224  L 51.997585 24.908724  L 52.083137 24.857724  L 52.100247 24.857724  L 52.793217 24.747224  L 52.827438 24.713224  L 52.895879 24.713224  L 53.819839 24.602724  L 53.913946 24.568724  L 53.922501 24.568724  L 54.949124 24.458224  L 55.043231 24.424225  L 55.051786 24.424225  L 55.616428 24.313725  L 55.71909 24.271225  L 56.317953 24.160725  L 56.317953 24.152225  L 56.420615 24.152225  L 57.199137 24.041725  L 57.207692 24.024725  L 57.301799 24.024725  L 58.182983 23.914225  L 58.285646 23.880225  L 59.834134 23.769725  L 59.87691 23.744225  L 59.936796 23.744225  L 60.638322 23.633725  L 60.740984 23.599725  L 61.699164 23.489226  L 61.801827 23.463726  L 62.246696 23.353226  L 62.349358 23.327726  L 63.162101 23.217226  L 63.179211 23.200226  L 63.264763 23.200226  L 64.368382 23.089726  L 64.368382 23.081226  L 64.471044 23.081226  L 64.787586 22.970726  L 64.847472 22.936726  L 64.890248 22.936726  L 65.737212 22.826226  L 65.737212 22.817726  L 65.839874 22.817726  L 66.472958 22.715727  L 66.472958 22.707227  L 66.498623 22.673227  L 66.57562 22.673227  L 67.165927 22.562727  L 67.225814 22.528727  L 67.26859 22.528727  L 68.030001 22.418227  L 68.132663 22.384227  L 68.740081 22.273727  L 68.834188 22.222727  L 68.842744 22.222727  L 69.689707 22.112227  L 69.723928 22.086727  L 69.792369 22.086727  L 70.50245 21.976227  L 70.51956 21.942227  L 70.605112 21.942227  L 71.015761 21.831728  L 71.084202 21.806228  L 71.118423 21.806228  L 71.760062 21.695728  L 71.854169 21.670228  L 71.862724 21.670228  L 72.418811 21.568228  L 72.418811 21.559728  L 72.418811 21.551228  L 72.521473 21.551228  L 73.171667 21.440728  L 73.171667 21.432228  L 73.274329 21.432228  L 74.044296 21.321728  L 74.138403 21.296228  L 74.146958 21.296228  L 74.617493 21.194228  L 74.617493 21.185728  L 74.685935 21.143228  L 74.720156 21.143228  L 75.464457 21.032729  L 75.567119 20.990229  L 75.952102 20.879729  L 76.011988 20.837229  L 76.054764 20.837229  L 77.243935 20.726729  L 77.269601 20.701229  L 77.346597 20.701229  L 77.757246 20.590729  L 77.842798 20.556729  L 77.859908 20.556729  L 78.424551 20.446229  L 78.458771 20.420729  L 78.527213 20.420729  L 79.040524 20.318729  L 79.040524 20.310229  L 79.066189 20.284729  L 79.143186 20.284729  L 79.784825 20.17423  L 79.861822 20.14873  L 79.887487 20.14873  L 80.512016 20.04673  L 80.512016 20.03823  L 80.597568 19.99573  L 80.614678 19.99573  L 81.230651 19.88523  L 81.333313 19.85123  L 81.812404 19.74073  L 81.838069 19.72373  L 81.915066 19.72373  L 82.479708 19.61323  L 82.556705 19.59623  L 82.58237 19.59623  L 83.343782 19.48573  L 83.403668 19.45173  L 83.446444 19.45173  L 83.9512 19.34123  L 83.96831 19.324231  L 84.053862 19.324231  L 84.729722 19.213731  L 84.755387 19.179731  L 84.832384 19.179731  L 85.397026 19.069231  L 85.491133 19.009731  L 85.499688 19.009731  L 85.978779 18.899231  L 86.072886 18.865231  L 86.081441 18.865231  L 86.637528 18.754731  L 86.697414 18.712231  L 86.74019 18.712231  L 87.18506 18.601731  L 87.244946 18.559231  L 87.287722 18.559231  L 87.758257 18.448732  L 87.826699 18.423232  L 87.860919 18.423232  L 88.14324 18.312732  L 88.14324 18.304232  L 88.245903 18.304232  L 88.682217 18.202232  L 88.682217 18.193732  L 88.767769 18.125732  L 88.784879 18.125732  L 89.417963 18.015232  L 89.49496 17.981232  L 89.520625 17.981232  L 90.068157 17.879232  L 90.068157 17.870732  L 90.162264 17.819732  L 90.170819 17.819732  L 90.530137 17.717732  L 90.530137 17.709232  L 90.530137 17.700732  L 90.632799 17.700732  L 90.923675 17.590233  L 91.017783 17.564733  L 91.026338 17.564733  L 91.479763 17.454233  L 91.582425 17.411733  L 92.07007 17.301233  L 92.121401 17.275733  L 92.172732 17.275733  L 92.899923 17.182233  L 92.899923 17.165233  L 92.959809 17.139733  L 93.002585 17.139733  L 93.447455 17.029233  L 93.550117 17.003733  L 94.080539 16.901733  L 94.080539 16.893233  L 94.080539 16.876233  L 94.183201 16.876233  L 94.653736 16.765734  L 94.739288 16.748734  L 94.756398 16.748734  L 95.107161 16.638234  L 95.192713 16.587234  L 95.209823 16.587234  L 95.466479 16.476734  L 95.560586 16.417234  L 95.569141 16.417234  L 96.01401 16.306734  L 96.01401 16.289734  L 96.116673 16.289734  L 96.356218 16.187734  L 96.356218 16.179234  L 96.381883 16.153734  L 96.45888 16.153734  L 96.912305 16.043234  L 96.989301 15.949734  L 97.014967 15.949734  L 97.203181 15.839235  L 97.280178 15.805235  L 97.305843 15.805235  L 97.476947 15.703235  L 97.476947 15.694735  L 97.528278 15.584235  L 97.579609 15.584235  L 97.879041 15.473735  L 97.973148 15.388735  L 97.981703 15.388735  L 98.221248 15.278235  L 98.32391 15.176235  L 98.503569 15.065736  L 98.589121 15.031736  L 98.606231 15.031736  L 98.78589 14.921236  L 98.888552 14.810736  L 98.965549 14.734236  L 98.965549 14.700236  L 99.068211 14.623736  L 99.145208 14.530236  L 99.145208 14.513236  L 99.24787 14.275236  L 99.273536 14.190237  L 99.273536 14.164737  L 99.350532 13.246738  L 99.350532 13.246738  " clip-path="url(#pebec531986)" style="fill: none; stroke: #0989ff; stroke-linecap: square"/>
   </g>
   <g id="line2d_9">
    <path d="M 13.798685 98.246638  L 99.350532 13.246738  " clip-path="url(#pebec531986)" style="fill: none; stroke-dasharray: 1.85,0.8; stroke-dashoffset: 0; stroke: #000000; stroke-width: 0.5"/>
   </g>
   <g id="patch_3">
    <path d="M 13.798685 98.246638  L 13.798685 13.246738  " style="fill: none; stroke: #000000; stroke-width: 0.75; stroke-linejoin: miter; stroke-linecap: square"/>
   </g>
   <g id="patch_4">
    <path d="M 13.798685 98.246638  L 99.350532 98.246638  " style="fill: none; stroke: #000000; stroke-width: 0.75; stroke-linejoin: miter; stroke-linecap: square"/>
   </g>
  </g>
 </svg>
